<svg xmlns="http://www.w3.org/2000/svg" width="1200" height="630" viewBox="0 0 1200 630">
  <rect width="1200" height="630" fill="#ffffff"/>
  <rect width="1200" height="12" fill="#009639"/>
  <g transform="translate(84,108) scale(2.7)">
    <g transform="translate(-7.198 -0.359)">
      <path fill="#009639" d="M7.606,45.181a3.019,3.019,0,0,0,1.134,1.126L31.942,59.702a3.044,3.044,0,0,0,3.084,0L58.229,46.306a3.043,3.043,0,0,0,1.541-2.67V16.846a3.044,3.044,0,0,0-1.542-2.67L35.025,0.779a3.04,3.04,0,0,0-3.082,0L8.741,14.175a3.042,3.042,0,0,0-1.543,2.67V43.637a3.025,3.025,0,0,0,.407,1.544"/>
      <path fill="#fff" d="M26.055,40.439a2.984,2.984,0,0,1-5.968,0l.003-20.483a3.111,3.111,0,0,1,3.388-2.899,5.306,5.306,0,0,1,4.067,1.819l.902,1.079L40.914,34.874V20.041a2.984,2.984,0,1,1,5.968,0l-.004,20.481a3.111,3.111,0,0,1-3.388,2.899,5.303,5.303,0,0,1-4.067-1.819L26.054,25.606V40.44Z"/>
    </g>
  </g>
  <text x="86" y="398" font-family="Helvetica, Arial, sans-serif" font-size="82" font-weight="700" fill="#1a1a2e">NGINX on Kubernetes</text>
  <text x="88" y="458" font-family="Helvetica, Arial, sans-serif" font-size="32" font-weight="400" fill="#555555">Ingress Controller &#183; Gateway Fabric &#183; Migration tools</text>
  <rect x="0" y="566" width="1200" height="64" fill="#009639"/>
  <text x="86" y="608" font-family="Helvetica, Arial, sans-serif" font-size="28" font-weight="600" fill="#ffffff">kubernetes.nginx.org</text>
</svg>
