<svg xmlns="http://www.w3.org/2000/svg" width="512" height="512" viewBox="0 0 512 512">
  <rect width="512" height="512" fill="#ffffff"/>
  <g transform="translate(121,103) scale(5.1)">
    <g transform="translate(-7.198 -0.359)">
      <path fill="#009639" d="M7.606,45.181a3.019,3.019,0,0,0,1.134,1.126L31.942,59.702a3.044,3.044,0,0,0,3.084,0L58.229,46.306a3.043,3.043,0,0,0,1.541-2.67V16.846a3.044,3.044,0,0,0-1.542-2.67L35.025,0.779a3.04,3.04,0,0,0-3.082,0L8.741,14.175a3.042,3.042,0,0,0-1.543,2.67V43.637a3.025,3.025,0,0,0,.407,1.544"/>
      <path fill="#fff" d="M26.055,40.439a2.984,2.984,0,0,1-5.968,0l.003-20.483a3.111,3.111,0,0,1,3.388-2.899,5.306,5.306,0,0,1,4.067,1.819l.902,1.079L40.914,34.874V20.041a2.984,2.984,0,1,1,5.968,0l-.004,20.481a3.111,3.111,0,0,1-3.388,2.899,5.303,5.303,0,0,1-4.067-1.819L26.054,25.606V40.44Z"/>
    </g>
  </g>
</svg>
